<?xml version="1.0" encoding="iso-8859-1"?>
<!-- Generator: Adobe Illustrator 26.0.1, SVG Export Plug-In . SVG Version: 6.00 Build 0)  -->
<svg version="1.1" id="Layer_1" xmlns="http://www.w3.org/2000/svg" xmlns:xlink="http://www.w3.org/1999/xlink" x="0px" y="0px"
	 viewBox="0 0 1000 1000" style="enable-background:new 0 0 1000 1000;" xml:space="preserve">
<g id="watermark_1_">
	<g>
		<g id="watermark" style="opacity:0.61;">
			<g>
				<g>
					<g>
						<g>
							<polygon style="fill:#FFFFFF;" points="421.112,924.528 409.007,952.493 402.615,952.493 390.55,924.528 397.541,924.528 
								406.051,944.503 414.68,924.528 							"/>
						</g>
						<g>
							<path style="fill:#FFFFFF;" d="M442.323,943.185h-16.26c0.599,2.677,2.876,4.315,6.153,4.315
								c2.277,0,3.915-0.679,5.393-2.077l3.316,3.595c-1.997,2.278-4.994,3.476-8.868,3.476c-7.431,0-12.265-4.674-12.265-11.067
								c0-6.432,4.914-11.066,11.466-11.066c6.312,0,11.186,4.235,11.186,11.146C442.443,941.987,442.363,942.666,442.323,943.185
								 M425.983,939.55h10.587c-0.44-2.717-2.478-4.475-5.274-4.475C428.46,935.075,426.422,936.793,425.983,939.55"/>
						</g>
						<g>
							<path style="fill:#FFFFFF;" d="M444.997,941.427c0-6.471,4.994-11.066,11.985-11.066c4.514,0,8.07,1.958,9.628,5.473
								l-4.834,2.597c-1.159-2.038-2.877-2.956-4.834-2.956c-3.156,0-5.633,2.198-5.633,5.952c0,3.756,2.477,5.953,5.633,5.953
								c1.958,0,3.675-0.879,4.834-2.956l4.834,2.637c-1.558,3.436-5.114,5.433-9.628,5.433
								C449.991,952.493,444.997,947.899,444.997,941.427"/>
						</g>
						<g>
							<path style="fill:#FFFFFF;" d="M484.386,951.135c-1.279,0.919-3.157,1.358-5.074,1.358c-5.073,0-8.03-2.597-8.03-7.711
								v-8.829h-3.316v-4.794h3.316v-5.233h6.232v5.233h5.353v4.794h-5.353v8.749c0,1.837,0.998,2.836,2.677,2.836
								c0.918,0,1.837-0.279,2.517-0.799L484.386,951.135z"/>
						</g>
					</g>
					<g>
						<path style="fill:#FFFFFF;" d="M527.157,930.68v5.753c-0.519-0.04-0.918-0.08-1.398-0.08c-3.435,0-5.713,1.877-5.713,5.993
							v10.147h-6.232V931h5.953v2.836C521.284,931.759,523.841,930.68,527.157,930.68"/>
					</g>
					<g>
						<path style="fill:#FFFFFF;" d="M528.954,949.257l2.197-4.874c2.357,1.718,5.873,2.916,9.229,2.916
							c3.836,0,5.393-1.278,5.393-2.996c0-5.233-16.26-1.638-16.26-12.025c0-4.754,3.835-8.709,11.785-8.709
							c3.516,0,7.112,0.839,9.708,2.477l-1.998,4.914c-2.597-1.478-5.273-2.197-7.75-2.197c-3.835,0-5.313,1.438-5.313,3.196
							c0,5.154,16.259,1.598,16.259,11.865c0,4.675-3.875,8.67-11.865,8.67C535.905,952.493,531.43,951.175,528.954,949.257"/>
					</g>
					<g>
						<path style="fill:#FFFFFF;" d="M577.131,943.185h-16.26c0.599,2.677,2.876,4.315,6.153,4.315c2.277,0,3.915-0.679,5.393-2.077
							l3.316,3.595c-1.998,2.278-4.994,3.476-8.869,3.476c-7.431,0-12.265-4.674-12.265-11.067c0-6.432,4.914-11.066,11.466-11.066
							c6.312,0,11.187,4.235,11.187,11.146C577.251,941.987,577.171,942.666,577.131,943.185 M560.791,939.55h10.587
							c-0.439-2.717-2.477-4.475-5.273-4.475C563.268,935.075,561.231,936.793,560.791,939.55"/>
					</g>
					<g>
						<path style="fill:#FFFFFF;" d="M602.337,943.185h-16.26c0.599,2.677,2.876,4.315,6.152,4.315c2.277,0,3.915-0.679,5.393-2.077
							l3.316,3.595c-1.998,2.278-4.994,3.476-8.869,3.476c-7.431,0-12.265-4.674-12.265-11.067c0-6.432,4.914-11.066,11.466-11.066
							c6.312,0,11.186,4.235,11.186,11.146C602.457,941.987,602.377,942.666,602.337,943.185 M585.997,939.55h10.587
							c-0.439-2.717-2.477-4.475-5.273-4.475C588.474,935.075,586.437,936.793,585.997,939.55"/>
					</g>
					<g>
						<polygon style="fill:#FFFFFF;" points="615.838,944.064 612.841,947.02 612.841,952.493 606.61,952.493 606.61,922.85 
							612.841,922.85 612.841,939.629 621.95,931 629.381,931 620.432,940.108 630.18,952.493 622.63,952.493 						"/>
					</g>
					<g>
						<path style="fill:#FFFFFF;" d="M514.371,955.416L514.371,955.416l-6.226-6.226c-0.947,1.107-2.075,2.054-3.339,2.796
							c-0.201,0.15-0.406,0.296-0.616,0.433l6.589,6.589c0.992,0.992,2.601,0.992,3.592,0
							C515.363,958.017,515.363,956.408,514.371,955.416"/>
					</g>
					<g>
						<path style="fill:#FFFFFF;" d="M499.965,929.04c0.48-0.377,1.077-0.612,1.735-0.612c0.091,0,0.181,0.005,0.27,0.013
							c-0.466-0.34-1.041-0.542-1.663-0.542c-0.859,0-1.619,0.392-2.137,0.998c-0.111,0-0.218,0.013-0.328,0.016
							c0.086-0.167,0.139-0.354,0.139-0.555c0-0.509-0.311-0.945-0.752-1.13c0.19,0.275,0.301,0.608,0.301,0.968
							c0,0.267-0.066,0.517-0.176,0.742c-6.119,0.437-10.95,5.527-10.95,11.757c0,6.516,5.283,11.799,11.799,11.799
							c6.517,0,11.8-5.283,11.8-11.799C510.004,934.777,505.644,929.892,499.965,929.04 M495.61,932.114
							c0.947,0,1.837,0.244,2.611,0.674c0.813-0.532,1.785-0.842,2.828-0.842c1.547,0,2.934,0.68,3.883,1.756
							c-0.948-0.826-2.186-1.328-3.541-1.328c-0.977,0-1.895,0.261-2.686,0.716c-0.172,0.1-0.34,0.208-0.499,0.326
							c-0.142-0.104-0.29-0.203-0.444-0.292c-0.803-0.476-1.741-0.749-2.743-0.749c-0.653,0-1.279,0.117-1.86,0.331
							C493.895,932.328,494.727,932.114,495.61,932.114 M503.858,941.785c0.25,0.664,0.394,1.38,0.394,2.131
							c0,3.34-2.707,6.047-6.047,6.047c-3.339,0-6.047-2.707-6.047-6.047c0-0.751,0.143-1.467,0.394-2.131
							c-1.35-0.831-2.253-2.317-2.253-4.019c0-2.607,2.114-4.72,4.72-4.72c1.23,0,2.346,0.474,3.186,1.244
							c0.84-0.77,1.956-1.244,3.186-1.244c2.607,0,4.72,2.113,4.72,4.72C506.111,939.467,505.208,940.954,503.858,941.785"/>
					</g>
					<g>
						<path style="fill:#FFFFFF;" d="M503.627,937.351c0,1.082-0.879,1.961-1.961,1.961c-1.082,0-1.961-0.879-1.961-1.961
							s0.879-1.961,1.961-1.961c0.22,0,0.428,0.037,0.625,0.102c-0.065,0.135-0.099,0.287-0.099,0.445
							c0,0.595,0.482,1.076,1.077,1.076c0.11,0,0.217-0.017,0.318-0.048C503.613,937.089,503.627,937.218,503.627,937.351"/>
					</g>
					<g>
						<path style="fill:#FFFFFF;" d="M496.201,937.351c0,0.818-0.665,1.482-1.483,1.482c-0.818,0-1.483-0.664-1.483-1.482
							s0.665-1.483,1.483-1.483c0.166,0,0.324,0.027,0.473,0.077c-0.049,0.102-0.075,0.217-0.075,0.337
							c0,0.449,0.364,0.814,0.814,0.814c0.083,0,0.164-0.013,0.241-0.036C496.191,937.153,496.201,937.251,496.201,937.351"/>
					</g>
					<g>
						<g>
							<g>
								<rect x="484.56" y="939.024" style="fill:#FFFFFF;" width="1.34" height="1.34"/>
							</g>
							<g>
								<rect x="510.51" y="939.024" style="fill:#FFFFFF;" width="1.34" height="1.34"/>
							</g>
							<g>
								<path style="fill:#FFFFFF;" d="M511.332,939.572h-0.304c0-7.07-5.752-12.823-12.823-12.823
									c-7.07,0-12.823,5.753-12.823,12.823h-0.305c0-3.506,1.365-6.803,3.845-9.282c2.479-2.48,5.776-3.845,9.282-3.845
									c3.507,0,6.803,1.365,9.283,3.845C509.966,932.769,511.332,936.065,511.332,939.572"/>
							</g>
						</g>
						<g>
							<rect x="497.534" y="925.927" style="fill:#FFFFFF;" width="1.34" height="1.34"/>
						</g>
						<g>
							<rect x="489.006" y="926.445" style="fill:#FFFFFF;" width="18.397" height="0.304"/>
						</g>
						<g>
							<path style="fill:#FFFFFF;" d="M489.494,926.658c0,0.235-0.191,0.427-0.427,0.427c-0.235,0-0.426-0.191-0.426-0.427
								s0.191-0.427,0.426-0.427C489.303,926.231,489.494,926.422,489.494,926.658"/>
						</g>
						<g>
							<path style="fill:#FFFFFF;" d="M507.829,926.658c0,0.235-0.191,0.427-0.427,0.427c-0.235,0-0.426-0.191-0.426-0.427
								s0.191-0.427,0.426-0.427C507.639,926.231,507.829,926.422,507.829,926.658"/>
						</g>
					</g>
				</g>
				<g>
					<path style="fill:#FFFFFF;" d="M640.109,951.171c0,3.395-5.146,3.395-5.146,0C634.963,947.779,640.109,947.779,640.109,951.171
						z"/>
				</g>
				<g>
					<g>
						<g>
							<path style="fill:#FFFFFF;" d="M307.849,936.236l3.859,13.253l4.038-13.253h4.823l-6.145,17.721h-5.073l-1.822-5.216
								l-1.572-5.896l-1.571,5.896l-1.822,5.216h-5.073l-6.18-17.721h4.858l4.038,13.253l3.822-13.253H307.849z"/>
						</g>
						<g>
							<path style="fill:#FFFFFF;" d="M340.449,936.236l3.859,13.253l4.038-13.253h4.823l-6.145,17.721h-5.073l-1.822-5.216
								l-1.571-5.896l-1.572,5.896l-1.822,5.216h-5.073l-6.18-17.721h4.858l4.038,13.253l3.822-13.253H340.449z"/>
						</g>
						<g>
							<path style="fill:#FFFFFF;" d="M373.048,936.236l3.859,13.253l4.038-13.253h4.823l-6.145,17.721h-5.073l-1.822-5.216
								l-1.572-5.896l-1.571,5.896l-1.822,5.216h-5.073l-6.18-17.721h4.858l4.038,13.253l3.822-13.253H373.048z"/>
						</g>
					</g>
					<g>
						<path style="fill:#FFFFFF;" d="M393.123,951.412c0,3.395-5.146,3.395-5.146,0C387.977,948.02,393.123,948.02,393.123,951.412z
							"/>
					</g>
					<g>
						<path style="fill:#FFFFFF;" d="M658.296,951.171c-2.036,2.001-4.177,2.787-6.787,2.787c-5.108,0-9.361-3.072-9.361-9.323
							c0-6.251,4.253-9.326,9.361-9.326c2.502,0,4.43,0.716,6.359,2.609l-2.752,2.894c-1.036-0.931-2.321-1.393-3.534-1.393
							c-2.929,0-5.073,2.144-5.073,5.216c0,3.357,2.286,5.143,5,5.143c1.393,0,2.787-0.393,3.857-1.463L658.296,951.171z"/>
					</g>
					<g>
						<path style="fill:#FFFFFF;" d="M678.097,944.777c0,5.073-3.465,9.181-9.181,9.181c-5.716,0-9.146-4.107-9.146-9.181
							c0-5.038,3.502-9.181,9.111-9.181S678.097,939.739,678.097,944.777z M664.128,944.777c0,2.679,1.609,5.181,4.788,5.181
							c3.179,0,4.788-2.502,4.788-5.181c0-2.644-1.859-5.216-4.788-5.216C665.772,939.561,664.128,942.133,664.128,944.777z"/>
					</g>
					<g>
						<path style="fill:#FFFFFF;" d="M692.828,953.958v-9.431c0-2.324-1.216-4.43-3.61-4.43c-2.356,0-3.75,2.106-3.75,4.43v9.431
							h-4.36v-17.649h4.038l0.323,2.144c0.928-1.786,2.964-2.429,4.643-2.429c2.109,0,4.218,0.858,5.216,3.287
							c1.574-2.502,3.61-3.217,5.896-3.217c5,0,7.467,3.075,7.467,8.36v9.504h-4.361v-9.504c0-2.321-0.963-4.288-3.322-4.288
							c-2.356,0-3.822,2.036-3.822,4.36v9.431H692.828z"/>
					</g>
				</g>
			</g>
		</g>
		<g style="opacity:0.61;">
			<g>
				<g>
					<path style="fill:#FFFFFF;" d="M708.973,859.493c-0.013-2.665-2.087-4.618-4.766-4.659c-2.011-0.031-1.81,0.261-1.815-1.887
						c-0.006-2.389-0.015-4.778,0.006-7.166c0.007-0.824-0.243-1.505-0.787-2.125c-5.098-5.81-10.184-11.63-15.281-17.441
						c-0.262-0.299-0.599-0.532-0.901-0.796c-13.528,0-27.055,0-40.583,0c-1.729,0.639-2.482,1.889-2.478,3.72
						c0.021,8.159,0.009,16.318,0.008,24.478c0,1.21-0.007,1.281-1.197,1.201c-3.258-0.221-5.477,2.147-5.436,5.426
						c0.096,7.568,0.028,15.137,0.031,22.706c0.001,3.44,1.887,5.32,5.333,5.331c1.267,0.004,1.268,0.004,1.268,1.306
						c0.001,4.831-0.002,9.662,0.002,14.493c0.002,2.595,1.262,3.855,3.85,3.855c17.446,0.001,34.891,0.001,52.337,0
						c2.543,0,3.822-1.268,3.824-3.799c0.005-4.912,0.001-9.823,0.003-14.735c0-1.115,0.005-1.112,1.131-1.121
						c0.589-0.005,1.177,0.017,1.761-0.127c2.169-0.535,3.68-2.273,3.689-4.503C709.007,875.597,709.011,867.545,708.973,859.493z
						 M647.034,828.716c11.619-0.001,23.237-0.001,34.856,0c1.193,0,1.206,0.015,1.207,1.222c0.001,4.884-0.002,9.767,0.002,14.651
						c0.001,1.765,0.543,2.305,2.307,2.306c4.159,0.003,8.318,0,12.477,0.003c0.997,0.001,1.044,0.046,1.046,1.052
						c0.006,1.932,0.005,3.864,0,5.796c-0.003,1.038-0.051,1.085-1.098,1.085c-8.479,0.002-16.958,0.001-25.438,0.001
						c-8.452,0-16.905,0-25.357,0c-1.198,0-1.202-0.003-1.202-1.221c-0.001-7.889-0.001-15.778,0-23.667
						C645.835,828.724,645.844,828.716,647.034,828.716z M697.728,903.645c-8.454,0.001-16.908,0.001-25.362,0.001
						c-8.427,0-16.854,0.001-25.281,0c-1.245,0-1.249-0.003-1.249-1.262c-0.001-4.348-0.003-8.696,0.001-13.043
						c0.001-1.01,0.051-1.059,1.041-1.059c16.989-0.002,33.977-0.002,50.966,0c1.041,0,1.086,0.044,1.087,1.094
						c0.003,4.348,0.003,8.696,0.001,13.043C698.931,903.634,698.92,903.645,697.728,903.645z"/>
				</g>
				<g>
					<g>
						<rect x="668.546" y="828.478" style="fill:#FFFFFF;" width="3.825" height="2.295"/>
					</g>
					<g>
						<rect x="664.722" y="830.773" style="fill:#FFFFFF;" width="3.825" height="2.295"/>
					</g>
					<g>
						<rect x="668.546" y="833.068" style="fill:#FFFFFF;" width="3.825" height="2.295"/>
					</g>
					<g>
						<rect x="664.722" y="835.363" style="fill:#FFFFFF;" width="3.825" height="2.295"/>
					</g>
					<g>
						<rect x="668.546" y="837.658" style="fill:#FFFFFF;" width="3.825" height="2.295"/>
					</g>
					<g>
						<rect x="664.722" y="839.953" style="fill:#FFFFFF;" width="3.825" height="2.295"/>
					</g>
					<g>
						<rect x="668.546" y="842.247" style="fill:#FFFFFF;" width="3.825" height="2.295"/>
					</g>
					<g>
						<rect x="664.722" y="844.542" style="fill:#FFFFFF;" width="3.825" height="2.295"/>
					</g>
					<g>
						<rect x="668.546" y="846.837" style="fill:#FFFFFF;" width="3.825" height="2.295"/>
					</g>
					<g>
						<rect x="664.722" y="849.132" style="fill:#FFFFFF;" width="3.825" height="2.295"/>
					</g>
					<g>
						<rect x="668.546" y="851.427" style="fill:#FFFFFF;" width="3.825" height="2.295"/>
					</g>
					<g>
						<rect x="664.722" y="853.722" style="fill:#FFFFFF;" width="3.825" height="2.295"/>
					</g>
				</g>
			</g>
			<g>
				<path style="fill:#FFFFFF;" d="M364.231,859.493c-0.013-2.665-2.087-4.618-4.766-4.659c-2.011-0.031-1.81,0.261-1.815-1.887
					c-0.006-2.389-0.015-4.778,0.006-7.166c0.007-0.824-0.243-1.505-0.787-2.125c-5.098-5.81-10.184-11.63-15.281-17.441
					c-0.262-0.299-0.599-0.532-0.901-0.796c-13.528,0-27.055,0-40.583,0c-1.729,0.639-2.482,1.889-2.478,3.72
					c0.021,8.159,0.009,16.318,0.008,24.478c0,1.21-0.007,1.281-1.197,1.201c-3.258-0.221-5.477,2.147-5.436,5.426
					c0.096,7.568,0.028,15.137,0.031,22.706c0.001,3.44,1.887,5.32,5.333,5.331c1.267,0.004,1.268,0.004,1.268,1.306
					c0.001,4.831-0.002,9.662,0.002,14.493c0.002,2.595,1.262,3.855,3.85,3.855c17.446,0.001,34.891,0.001,52.337,0
					c2.543,0,3.822-1.268,3.824-3.799c0.005-4.912,0.001-9.823,0.003-14.735c0-1.115,0.004-1.112,1.131-1.121
					c0.589-0.005,1.177,0.017,1.761-0.127c2.169-0.535,3.68-2.273,3.689-4.503C364.264,875.597,364.269,867.545,364.231,859.493z
					 M302.292,828.716c11.619-0.001,23.237-0.001,34.856,0c1.192,0,1.206,0.015,1.207,1.222c0.001,4.884-0.001,9.767,0.002,14.651
					c0.001,1.765,0.543,2.305,2.307,2.306c4.159,0.003,8.318,0,12.477,0.003c0.997,0.001,1.044,0.046,1.046,1.052
					c0.006,1.932,0.005,3.864,0,5.796c-0.003,1.038-0.051,1.085-1.098,1.085c-8.479,0.002-16.958,0.001-25.438,0.001
					c-8.452,0-16.905,0-25.357,0c-1.198,0-1.202-0.003-1.202-1.221c-0.001-7.889-0.001-15.778,0-23.667
					C301.093,828.724,301.102,828.716,302.292,828.716z M352.985,903.645c-8.454,0.001-16.908,0.001-25.362,0.001
					c-8.427,0-16.854,0.001-25.281,0c-1.245,0-1.249-0.003-1.249-1.262c-0.001-4.348-0.003-8.696,0.001-13.043
					c0.001-1.01,0.051-1.059,1.041-1.059c16.989-0.002,33.977-0.002,50.966,0c1.041,0,1.086,0.044,1.087,1.094
					c0.003,4.348,0.003,8.696,0.001,13.043C354.188,903.634,354.177,903.645,352.985,903.645z"/>
			</g>
			<g>
				<path style="fill:#FFFFFF;" d="M303.581,879.891v-17.193h6.051c0.816,0,1.581,0.132,2.293,0.396
					c0.712,0.264,1.333,0.636,1.861,1.117c0.527,0.48,0.944,1.053,1.248,1.717c0.304,0.665,0.456,1.397,0.456,2.198
					c0,0.816-0.152,1.557-0.456,2.221s-0.721,1.236-1.248,1.717c-0.529,0.48-1.149,0.852-1.861,1.117
					c-0.713,0.264-1.477,0.396-2.293,0.396h-2.809v6.315H303.581z M309.68,870.503c0.848,0,1.489-0.241,1.921-0.721
					c0.432-0.48,0.648-1.032,0.648-1.656c0-0.304-0.052-0.601-0.156-0.889c-0.105-0.288-0.264-0.54-0.48-0.756
					c-0.216-0.217-0.484-0.388-0.805-0.516c-0.32-0.129-0.696-0.193-1.128-0.193h-2.857v4.731H309.68z"/>
				<path style="fill:#FFFFFF;" d="M317.796,862.699h3.77l6.916,11.526h0.191l-0.191-3.314v-8.212h3.217v17.193h-3.409l-7.3-12.174
					h-0.191l0.191,3.314v8.86h-3.193V862.699z"/>
				<path style="fill:#FFFFFF;" d="M343.08,870.454h8.429c0.048,0.193,0.087,0.425,0.12,0.697c0.031,0.272,0.048,0.544,0.048,0.816
					c0,1.104-0.167,2.145-0.504,3.121c-0.336,0.977-0.865,1.849-1.585,2.618c-0.768,0.817-1.69,1.449-2.761,1.897
					c-1.073,0.448-2.298,0.672-3.674,0.672c-1.249,0-2.426-0.224-3.53-0.672c-1.104-0.447-2.065-1.072-2.881-1.873
					c-0.816-0.8-1.465-1.749-1.945-2.845c-0.48-1.097-0.72-2.293-0.72-3.59c0-1.296,0.24-2.493,0.72-3.589s1.129-2.045,1.945-2.845
					c0.816-0.8,1.777-1.425,2.881-1.873c1.104-0.448,2.281-0.672,3.53-0.672c1.392,0,2.637,0.24,3.734,0.72
					c1.097,0.48,2.036,1.144,2.821,1.993l-2.232,2.185c-0.562-0.592-1.185-1.044-1.874-1.357s-1.513-0.468-2.473-0.468
					c-0.786,0-1.53,0.14-2.234,0.421c-0.705,0.28-1.321,0.676-1.85,1.188c-0.527,0.512-0.949,1.133-1.259,1.861
					c-0.312,0.728-0.469,1.541-0.469,2.437c0,0.897,0.157,1.709,0.469,2.438c0.311,0.728,0.735,1.349,1.271,1.861
					c0.536,0.512,1.156,0.909,1.862,1.188c0.704,0.281,1.457,0.421,2.258,0.421c0.911,0,1.684-0.132,2.317-0.396
					c0.632-0.264,1.171-0.604,1.62-1.021c0.321-0.288,0.598-0.652,0.829-1.092s0.412-0.932,0.541-1.477h-5.404V870.454z"/>
			</g>
			<g>
				<path style="fill:#FFFFFF;" d="M443.437,859.493c-0.013-2.665-2.087-4.618-4.766-4.659c-2.011-0.031-1.81,0.261-1.815-1.887
					c-0.006-2.389-0.015-4.778,0.006-7.166c0.007-0.824-0.243-1.505-0.787-2.125c-5.098-5.81-10.184-11.63-15.281-17.441
					c-0.262-0.299-0.599-0.532-0.901-0.796c-13.528,0-27.055,0-40.583,0c-1.729,0.639-2.482,1.889-2.478,3.72
					c0.021,8.159,0.009,16.318,0.008,24.478c0,1.21-0.007,1.281-1.197,1.201c-3.258-0.221-5.477,2.147-5.436,5.426
					c0.096,7.568,0.028,15.137,0.031,22.706c0.001,3.44,1.887,5.32,5.333,5.331c1.267,0.004,1.268,0.004,1.268,1.306
					c0.001,4.831-0.002,9.662,0.002,14.493c0.002,2.595,1.262,3.855,3.85,3.855c17.446,0.001,34.891,0.001,52.337,0
					c2.543,0,3.822-1.268,3.824-3.799c0.005-4.912,0.001-9.823,0.003-14.735c0-1.115,0.004-1.112,1.131-1.121
					c0.589-0.005,1.177,0.017,1.761-0.127c2.169-0.535,3.68-2.273,3.689-4.503C443.47,875.597,443.475,867.545,443.437,859.493z
					 M381.498,828.716c11.619-0.001,23.237-0.001,34.856,0c1.192,0,1.206,0.015,1.207,1.222c0.001,4.884-0.001,9.767,0.002,14.651
					c0.001,1.765,0.543,2.305,2.307,2.306c4.159,0.003,8.318,0,12.477,0.003c0.997,0.001,1.044,0.046,1.046,1.052
					c0.006,1.932,0.005,3.864,0,5.796c-0.003,1.038-0.051,1.085-1.098,1.085c-8.479,0.002-16.958,0.001-25.438,0.001
					c-8.452,0-16.905,0-25.357,0c-1.198,0-1.202-0.003-1.202-1.221c-0.001-7.889-0.001-15.778,0-23.667
					C380.299,828.724,380.308,828.716,381.498,828.716z M432.192,903.645c-8.454,0.001-16.908,0.001-25.362,0.001
					c-8.427,0-16.854,0.001-25.281,0c-1.245,0-1.249-0.003-1.249-1.262c-0.001-4.348-0.002-8.696,0.001-13.043
					c0.001-1.01,0.051-1.059,1.041-1.059c16.989-0.002,33.977-0.002,50.966,0c1.041,0,1.086,0.044,1.087,1.094
					c0.003,4.348,0.003,8.696,0.001,13.043C433.394,903.634,433.384,903.645,432.192,903.645z"/>
			</g>
			<g>
				<path style="fill:#FFFFFF;" d="M402.272,862.699h3.698l6.46,17.193h-3.578l-1.416-4.106h-6.628l-1.417,4.106h-3.578
					L402.272,862.699z M406.379,872.808l-1.537-4.298l-0.625-2.089h-0.192l-0.625,2.089l-1.537,4.298H406.379z"/>
				<path style="fill:#FFFFFF;" d="M415.815,866.541c-0.273,0-0.533-0.052-0.781-0.156c-0.248-0.104-0.465-0.248-0.648-0.432
					c-0.184-0.184-0.328-0.396-0.432-0.636c-0.105-0.241-0.156-0.504-0.156-0.793s0.052-0.552,0.156-0.793
					c0.104-0.24,0.248-0.452,0.432-0.636c0.184-0.184,0.4-0.328,0.648-0.432c0.248-0.104,0.508-0.156,0.781-0.156
					c0.56,0,1.041,0.196,1.441,0.588c0.4,0.393,0.601,0.869,0.601,1.429c0,0.56-0.201,1.037-0.601,1.428
					C416.856,866.345,416.375,866.541,415.815,866.541z M414.255,879.891v-11.766h3.145v11.766H414.255z"/>
			</g>
			<g>
				<path style="fill:#FFFFFF;" d="M524.043,859.493c-0.013-2.665-2.087-4.618-4.766-4.659c-2.011-0.031-1.81,0.261-1.815-1.887
					c-0.006-2.389-0.015-4.778,0.006-7.166c0.007-0.824-0.243-1.505-0.787-2.125c-5.098-5.81-10.184-11.63-15.281-17.441
					c-0.262-0.299-0.599-0.532-0.901-0.796c-13.528,0-27.055,0-40.583,0c-1.729,0.639-2.482,1.889-2.478,3.72
					c0.021,8.159,0.009,16.318,0.008,24.478c0,1.21-0.007,1.281-1.197,1.201c-3.258-0.221-5.477,2.147-5.436,5.426
					c0.096,7.568,0.028,15.137,0.031,22.706c0.001,3.44,1.887,5.32,5.333,5.331c1.267,0.004,1.268,0.004,1.268,1.306
					c0.001,4.831-0.002,9.662,0.002,14.493c0.002,2.595,1.262,3.855,3.85,3.855c17.446,0.001,34.891,0.001,52.337,0
					c2.543,0,3.822-1.268,3.824-3.799c0.005-4.912,0.001-9.823,0.003-14.735c0-1.115,0.004-1.112,1.131-1.121
					c0.589-0.005,1.177,0.017,1.761-0.127c2.169-0.535,3.68-2.273,3.689-4.503C524.076,875.597,524.081,867.545,524.043,859.493z
					 M462.104,828.716c11.619-0.001,23.237-0.001,34.856,0c1.192,0,1.206,0.015,1.207,1.222c0.001,4.884-0.001,9.767,0.002,14.651
					c0.001,1.765,0.543,2.305,2.307,2.306c4.159,0.003,8.318,0,12.477,0.003c0.997,0.001,1.044,0.046,1.046,1.052
					c0.006,1.932,0.005,3.864,0,5.796c-0.003,1.038-0.051,1.085-1.098,1.085c-8.479,0.002-16.958,0.001-25.438,0.001
					c-8.452,0-16.905,0-25.357,0c-1.198,0-1.202-0.003-1.202-1.221c-0.001-7.889-0.001-15.778,0-23.667
					C460.905,828.724,460.914,828.716,462.104,828.716z M512.798,903.645c-8.454,0.001-16.908,0.001-25.362,0.001
					c-8.427,0-16.854,0.001-25.281,0c-1.245,0-1.249-0.003-1.249-1.262c-0.001-4.348-0.002-8.696,0.001-13.043
					c0.001-1.01,0.051-1.059,1.041-1.059c16.989-0.002,33.977-0.002,50.966,0c1.041,0,1.086,0.044,1.087,1.094
					c0.003,4.348,0.003,8.696,0.001,13.043C514,903.634,513.989,903.645,512.798,903.645z"/>
			</g>
			<g>
				<path style="fill:#FFFFFF;" d="M470.308,880.275c-0.737,0-1.441-0.104-2.113-0.312c-0.672-0.208-1.289-0.52-1.849-0.936
					c-0.56-0.416-1.048-0.925-1.464-1.525c-0.417-0.601-0.745-1.301-0.985-2.101l3.049-1.2c0.224,0.864,0.616,1.581,1.177,2.149
					s1.297,0.852,2.209,0.852c0.336,0,0.66-0.044,0.973-0.132c0.312-0.087,0.592-0.216,0.84-0.384
					c0.248-0.168,0.444-0.38,0.589-0.636c0.144-0.256,0.216-0.552,0.216-0.888c0-0.32-0.056-0.608-0.168-0.865
					c-0.112-0.255-0.3-0.495-0.564-0.72c-0.264-0.224-0.609-0.44-1.033-0.648c-0.424-0.208-0.948-0.424-1.572-0.648l-1.056-0.384
					c-0.465-0.16-0.933-0.376-1.405-0.648c-0.472-0.272-0.9-0.6-1.284-0.985c-0.385-0.384-0.701-0.836-0.949-1.357
					c-0.249-0.52-0.372-1.108-0.372-1.765c0-0.672,0.132-1.301,0.396-1.885c0.264-0.584,0.64-1.096,1.129-1.537
					c0.488-0.44,1.072-0.784,1.753-1.032c0.681-0.248,1.437-0.372,2.269-0.372c0.864,0,1.612,0.116,2.245,0.348
					c0.633,0.232,1.168,0.528,1.609,0.888c0.44,0.36,0.796,0.757,1.068,1.188c0.272,0.433,0.472,0.84,0.601,1.225l-2.857,1.2
					c-0.161-0.48-0.453-0.913-0.876-1.297c-0.425-0.384-1.005-0.576-1.741-0.576c-0.704,0-1.289,0.164-1.753,0.492
					c-0.465,0.329-0.697,0.757-0.697,1.285c0,0.512,0.224,0.949,0.672,1.309c0.448,0.36,1.161,0.708,2.137,1.044l1.081,0.36
					c0.688,0.241,1.316,0.517,1.885,0.828c0.568,0.312,1.056,0.684,1.465,1.117c0.408,0.433,0.72,0.925,0.936,1.477
					c0.217,0.552,0.324,1.189,0.324,1.909c0,0.897-0.18,1.669-0.54,2.317c-0.36,0.648-0.82,1.181-1.38,1.597
					c-0.561,0.416-1.193,0.728-1.897,0.936C471.668,880.172,470.98,880.275,470.308,880.275z"/>
				<path style="fill:#FFFFFF;" d="M477.175,862.699h3.506l3.554,10.349l0.625,2.209h0.192l0.672-2.209l3.698-10.349h3.506
					l-6.268,17.193h-3.409L477.175,862.699z"/>
				<path style="fill:#FFFFFF;" d="M502.388,870.454h8.428c0.048,0.193,0.088,0.425,0.12,0.697c0.033,0.272,0.049,0.544,0.049,0.816
					c0,1.104-0.169,2.145-0.505,3.121c-0.336,0.977-0.864,1.849-1.585,2.618c-0.768,0.817-1.688,1.449-2.761,1.897
					c-1.073,0.448-2.298,0.672-3.674,0.672c-1.249,0-2.425-0.224-3.529-0.672c-1.105-0.447-2.066-1.072-2.882-1.873
					c-0.816-0.8-1.465-1.749-1.945-2.845c-0.48-1.097-0.72-2.293-0.72-3.59c0-1.296,0.241-2.493,0.72-3.589
					c0.48-1.097,1.129-2.045,1.945-2.845c0.816-0.8,1.777-1.425,2.882-1.873c1.104-0.448,2.28-0.672,3.529-0.672
					c1.392,0,2.637,0.24,3.734,0.72c1.097,0.48,2.038,1.144,2.822,1.993l-2.234,2.185c-0.56-0.592-1.185-1.044-1.874-1.357
					c-0.687-0.312-1.512-0.468-2.473-0.468c-0.784,0-1.528,0.14-2.234,0.421c-0.704,0.28-1.321,0.676-1.848,1.188
					c-0.528,0.512-0.949,1.133-1.261,1.861c-0.312,0.728-0.468,1.541-0.468,2.437c0,0.897,0.156,1.709,0.468,2.438
					c0.312,0.728,0.737,1.349,1.273,1.861c0.536,0.512,1.156,0.909,1.86,1.188c0.705,0.281,1.457,0.421,2.258,0.421
					c0.913,0,1.685-0.132,2.317-0.396c0.632-0.264,1.173-0.604,1.621-1.021c0.32-0.288,0.596-0.652,0.828-1.092
					c0.233-0.44,0.412-0.932,0.541-1.477h-5.402V870.454z"/>
			</g>
			<g>
				<path style="fill:#FFFFFF;" d="M602.976,859.493c-0.013-2.665-2.087-4.618-4.766-4.659c-2.011-0.031-1.81,0.261-1.815-1.887
					c-0.006-2.389-0.015-4.778,0.006-7.166c0.007-0.824-0.243-1.505-0.787-2.125c-5.098-5.81-10.184-11.63-15.281-17.441
					c-0.262-0.299-0.599-0.532-0.901-0.796c-13.528,0-27.055,0-40.583,0c-1.729,0.639-2.482,1.889-2.478,3.72
					c0.021,8.159,0.009,16.318,0.008,24.478c0,1.21-0.007,1.281-1.197,1.201c-3.258-0.221-5.477,2.147-5.436,5.426
					c0.096,7.568,0.028,15.137,0.031,22.706c0.001,3.44,1.887,5.32,5.333,5.331c1.267,0.004,1.268,0.004,1.268,1.306
					c0.001,4.831-0.002,9.662,0.002,14.493c0.002,2.595,1.262,3.855,3.85,3.855c17.446,0.001,34.891,0.001,52.337,0
					c2.543,0,3.822-1.268,3.824-3.799c0.005-4.912,0.001-9.823,0.003-14.735c0-1.115,0.005-1.112,1.131-1.121
					c0.589-0.005,1.178,0.017,1.761-0.127c2.169-0.535,3.68-2.273,3.689-4.503C603.01,875.597,603.015,867.545,602.976,859.493z
					 M541.037,828.716c11.619-0.001,23.237-0.001,34.856,0c1.193,0,1.206,0.015,1.207,1.222c0.001,4.884-0.002,9.767,0.002,14.651
					c0.001,1.765,0.543,2.305,2.307,2.306c4.159,0.003,8.318,0,12.477,0.003c0.997,0.001,1.044,0.046,1.046,1.052
					c0.006,1.932,0.005,3.864,0,5.796c-0.003,1.038-0.051,1.085-1.098,1.085c-8.479,0.002-16.958,0.001-25.438,0.001
					c-8.452,0-16.905,0-25.357,0c-1.198,0-1.202-0.003-1.202-1.221c-0.001-7.889-0.001-15.778,0-23.667
					C539.838,828.724,539.847,828.716,541.037,828.716z M591.731,903.645c-8.454,0.001-16.908,0.001-25.362,0.001
					c-8.427,0-16.854,0.001-25.281,0c-1.245,0-1.249-0.003-1.249-1.262c-0.001-4.348-0.003-8.696,0.001-13.043
					c0.001-1.01,0.051-1.059,1.041-1.059c16.989-0.002,33.977-0.002,50.966,0c1.041,0,1.086,0.044,1.087,1.094
					c0.003,4.348,0.003,8.696,0.001,13.043C592.934,903.634,592.923,903.645,591.731,903.645z"/>
			</g>
			<g>
				<path style="fill:#FFFFFF;" d="M549.998,865.772v3.986h6.891v3.074h-6.891v3.986h7.659v3.073h-10.901v-17.193h10.901v3.073
					H549.998z"/>
				<path style="fill:#FFFFFF;" d="M560.635,879.891v-17.193h6.051c0.816,0,1.581,0.132,2.293,0.396
					c0.712,0.264,1.333,0.636,1.861,1.117c0.528,0.48,0.944,1.053,1.249,1.717c0.304,0.665,0.456,1.397,0.456,2.198
					c0,0.816-0.152,1.557-0.456,2.221c-0.305,0.664-0.721,1.236-1.249,1.717c-0.528,0.48-1.149,0.852-1.861,1.117
					c-0.713,0.264-1.477,0.396-2.293,0.396h-2.809v6.315H560.635z M566.735,870.503c0.848,0,1.489-0.241,1.921-0.721
					c0.432-0.48,0.648-1.032,0.648-1.656c0-0.304-0.052-0.601-0.156-0.889c-0.105-0.288-0.264-0.54-0.48-0.756
					c-0.216-0.217-0.484-0.388-0.805-0.516c-0.32-0.129-0.696-0.193-1.128-0.193h-2.857v4.731H566.735z"/>
				<path style="fill:#FFFFFF;" d="M580.109,880.275c-0.737,0-1.441-0.104-2.113-0.312c-0.672-0.208-1.289-0.52-1.849-0.936
					c-0.56-0.416-1.049-0.925-1.465-1.525c-0.416-0.601-0.744-1.301-0.985-2.101l3.049-1.2c0.224,0.864,0.616,1.581,1.177,2.149
					c0.56,0.568,1.296,0.852,2.209,0.852c0.336,0,0.66-0.044,0.973-0.132c0.312-0.087,0.592-0.216,0.84-0.384
					c0.248-0.168,0.444-0.38,0.588-0.636c0.144-0.256,0.217-0.552,0.217-0.888c0-0.32-0.057-0.608-0.168-0.865
					c-0.112-0.255-0.3-0.495-0.565-0.72c-0.264-0.224-0.608-0.44-1.032-0.648c-0.424-0.208-0.949-0.424-1.573-0.648l-1.056-0.384
					c-0.465-0.16-0.932-0.376-1.404-0.648c-0.473-0.272-0.901-0.6-1.285-0.985c-0.384-0.384-0.701-0.836-0.949-1.357
					c-0.248-0.52-0.372-1.108-0.372-1.765c0-0.672,0.132-1.301,0.396-1.885c0.264-0.584,0.64-1.096,1.129-1.537
					c0.489-0.44,1.073-0.784,1.753-1.032c0.68-0.248,1.437-0.372,2.269-0.372c0.865,0,1.613,0.116,2.246,0.348
					c0.632,0.232,1.168,0.528,1.609,0.888c0.44,0.36,0.796,0.757,1.068,1.188c0.272,0.433,0.472,0.84,0.601,1.225l-2.857,1.2
					c-0.161-0.48-0.453-0.913-0.877-1.297s-1.005-0.576-1.741-0.576c-0.705,0-1.289,0.164-1.753,0.492
					c-0.465,0.329-0.696,0.757-0.696,1.285c0,0.512,0.224,0.949,0.672,1.309c0.448,0.36,1.16,0.708,2.137,1.044l1.08,0.36
					c0.689,0.241,1.317,0.517,1.885,0.828c0.568,0.312,1.056,0.684,1.465,1.117c0.408,0.433,0.72,0.925,0.936,1.477
					c0.216,0.552,0.324,1.189,0.324,1.909c0,0.897-0.18,1.669-0.54,2.317c-0.36,0.648-0.821,1.181-1.38,1.597
					c-0.561,0.416-1.193,0.728-1.897,0.936C581.47,880.172,580.782,880.275,580.109,880.275z"/>
			</g>
			<g>
				<path style="fill:#FFFFFF;" d="M655.431,876.625l8.716-10.854h-8.332v-3.073h12.103v3.266l-8.621,10.854h8.716v3.073h-12.582
					V876.625z"/>
				<path style="fill:#FFFFFF;" d="M670.702,862.699h3.242v17.193h-3.242V862.699z"/>
				<path style="fill:#FFFFFF;" d="M677.402,879.891v-17.193h6.051c0.817,0,1.581,0.132,2.293,0.396
					c0.712,0.264,1.333,0.636,1.861,1.117s0.944,1.053,1.249,1.717c0.304,0.665,0.456,1.397,0.456,2.198
					c0,0.816-0.152,1.557-0.456,2.221c-0.305,0.664-0.721,1.236-1.249,1.717s-1.149,0.852-1.861,1.117
					c-0.713,0.264-1.477,0.396-2.293,0.396h-2.809v6.315H677.402z M683.501,870.503c0.848,0,1.489-0.241,1.921-0.721
					c0.433-0.48,0.648-1.032,0.648-1.656c0-0.304-0.052-0.601-0.156-0.889c-0.105-0.288-0.264-0.54-0.48-0.756
					c-0.216-0.217-0.484-0.388-0.805-0.516c-0.32-0.129-0.696-0.193-1.128-0.193h-2.857v4.731H683.501z"/>
			</g>
		</g>
		<g style="opacity:0.61;">
			<path style="fill:#FFFFFF;" d="M609.144,863.785h19.739v4.881h-19.739V863.785z M609.144,872.201h19.739v4.884h-19.739V872.201z"
				/>
		</g>
	</g>
	<g style="opacity:0.61;">
		<path style="fill:#FFFFFF;" d="M297,963.076h3.498c2.75,0,4.603,1.768,4.603,4.297s-1.854,4.296-4.603,4.296H297V963.076z
			 M300.449,970.883c2.283,0,3.756-1.448,3.756-3.51s-1.473-3.511-3.756-3.511h-2.541v7.021H300.449z"/>
		<path style="fill:#FFFFFF;" d="M315.251,967.373c0-2.504,1.915-4.37,4.517-4.37c2.577,0,4.505,1.853,4.505,4.37
			c0,2.516-1.927,4.369-4.505,4.369C317.166,971.742,315.251,969.877,315.251,967.373z M323.365,967.373
			c0-2.05-1.534-3.56-3.596-3.56c-2.075,0-3.621,1.51-3.621,3.56c0,2.049,1.546,3.559,3.621,3.559
			C321.831,970.932,323.365,969.422,323.365,967.373z"/>
		<path style="fill:#FFFFFF;" d="M346.724,963.076l-2.897,8.593h-0.957l-2.516-7.328l-2.529,7.328h-0.945l-2.897-8.593h0.933
			l2.479,7.389l2.566-7.389h0.847l2.529,7.426l2.516-7.426H346.724z"/>
		<path style="fill:#FFFFFF;" d="M364.435,963.076v8.593h-0.749l-5.524-6.972v6.972h-0.908v-8.593h0.749l5.536,6.973v-6.973H364.435
			z"/>
		<path style="fill:#FFFFFF;" d="M376.108,963.076h0.908v7.807h4.812v0.786h-5.72V963.076z"/>
		<path style="fill:#FFFFFF;" d="M391.279,967.373c0-2.504,1.915-4.37,4.517-4.37c2.577,0,4.505,1.853,4.505,4.37
			c0,2.516-1.927,4.369-4.505,4.369C393.194,971.742,391.279,969.877,391.279,967.373z M399.392,967.373
			c0-2.05-1.534-3.56-3.596-3.56c-2.075,0-3.621,1.51-3.621,3.56c0,2.049,1.546,3.559,3.621,3.559
			C397.858,970.932,399.392,969.422,399.392,967.373z"/>
		<path style="fill:#FFFFFF;" d="M416.478,969.374h-4.787l-1.031,2.295h-0.945l3.928-8.593h0.896l3.928,8.593h-0.957
			L416.478,969.374z M416.147,968.637l-2.062-4.615l-2.062,4.615H416.147z"/>
		<path style="fill:#FFFFFF;" d="M428.765,963.076h3.498c2.75,0,4.603,1.768,4.603,4.297s-1.854,4.296-4.603,4.296h-3.498V963.076z
			 M432.214,970.883c2.283,0,3.756-1.448,3.756-3.51s-1.473-3.511-3.756-3.511h-2.541v7.021H432.214z"/>
		<path style="fill:#FFFFFF;" d="M465.256,969.374h-4.787l-1.031,2.295h-0.945l3.928-8.593h0.896l3.928,8.593h-0.957
			L465.256,969.374z M464.925,968.637l-2.062-4.615l-2.062,4.615H464.925z"/>
		<path style="fill:#FFFFFF;" d="M477.543,963.076h0.908v7.807h4.812v0.786h-5.72V963.076z"/>
		<path style="fill:#FFFFFF;" d="M493.647,963.076h0.908v7.807h4.812v0.786h-5.72V963.076z"/>
		<path style="fill:#FFFFFF;" d="M522.749,963.862v3.376h4.443v0.786h-4.443v3.646h-0.909v-8.593h5.891v0.786H522.749z"/>
		<path style="fill:#FFFFFF;" d="M538.485,963.076h0.909v8.593h-0.909V963.076z"/>
		<path style="fill:#FFFFFF;" d="M551.067,963.076h0.909v7.807h4.811v0.786h-5.72V963.076z"/>
		<path style="fill:#FFFFFF;" d="M573.246,970.883v0.786h-6.076v-8.593h5.891v0.786h-4.983v3.056h4.443v0.774h-4.443v3.191H573.246z
			"/>
		<path style="fill:#FFFFFF;" d="M597.255,963.862v3.376h4.443v0.786h-4.443v3.646h-0.909v-8.593h5.891v0.786H597.255z"/>
		<path style="fill:#FFFFFF;" d="M612.119,967.373c0-2.504,1.915-4.37,4.517-4.37c2.577,0,4.505,1.853,4.505,4.37
			c0,2.516-1.927,4.369-4.505,4.369C614.034,971.742,612.119,969.877,612.119,967.373z M620.232,967.373
			c0-2.05-1.534-3.56-3.596-3.56c-2.075,0-3.622,1.51-3.622,3.56c0,2.049,1.547,3.559,3.622,3.559
			C618.698,970.932,620.232,969.422,620.232,967.373z"/>
		<path style="fill:#FFFFFF;" d="M637.919,971.669l-1.963-2.762c-0.222,0.024-0.442,0.037-0.688,0.037h-2.307v2.725h-0.909v-8.593
			h3.216c2.185,0,3.511,1.105,3.511,2.946c0,1.351-0.712,2.295-1.964,2.7l2.099,2.946H637.919z M637.871,966.022
			c0-1.375-0.909-2.161-2.627-2.161h-2.283v4.309h2.283C636.962,968.17,637.871,967.373,637.871,966.022z"/>
		<path style="fill:#FFFFFF;" d="M658.724,963.076v8.593h-0.871v-6.874l-3.376,5.782h-0.429l-3.376-5.745v6.837h-0.872v-8.593h0.749
			l3.732,6.371l3.695-6.371H658.724z"/>
		<path style="fill:#FFFFFF;" d="M675.787,969.374h-4.788l-1.031,2.295h-0.946l3.928-8.593h0.896l3.928,8.593h-0.957
			L675.787,969.374z M675.455,968.637l-2.062-4.615l-2.062,4.615H675.455z"/>
		<path style="fill:#FFFFFF;" d="M689.312,963.862h-3.02v-0.786h6.948v0.786h-3.02v7.807h-0.908V963.862z"/>
		<path style="fill:#FFFFFF;" d="M702.605,970.626l0.356-0.7c0.614,0.601,1.706,1.043,2.835,1.043c1.608,0,2.308-0.675,2.308-1.522
			c0-2.357-5.29-0.908-5.29-4.087c0-1.265,0.982-2.357,3.167-2.357c0.97,0,1.976,0.282,2.664,0.761l-0.307,0.724
			c-0.737-0.479-1.596-0.712-2.357-0.712c-1.571,0-2.271,0.7-2.271,1.559c0,2.357,5.29,0.933,5.29,4.063
			c0,1.265-1.006,2.344-3.204,2.344C704.508,971.742,703.243,971.288,702.605,970.626z"/>
	</g>
</g>
<g>
</g>
<g>
	<path style="fill:#92277B;" d="M394.294,418.565c-11.909-6.919-25.042-9.758-38.505-11.296
		c-13.307-1.521-26.529-0.786-39.621,2.191c-3.696,0.841-11.301-7.082-10.589-10.889c0.339-1.81,1.983-1.765,3.327-2.096
		c7.358-1.809,14.815-3.384,22.366-3.507c5.018-0.082,6.546-1.5,6.499-6.638c-0.254-27.856-0.052-55.715-0.203-83.572
		c-0.02-3.736,1.069-5.876,4.393-7.767c24.727-14.068,49.355-28.311,73.946-42.616c2.728-1.587,4.706-1.981,7.716-0.215
		c25.953,15.217,52.044,30.199,78.093,45.251c2.12,1.507,2.245,3.841,2.258,6.059c0.139,23.895,0.298,47.791-0.069,71.685
		c-0.013,0.816-0.23,1.615-0.453,2.389c-3.931,3.991-21.377,5.625-25.131,2.119c-3.335-3.115-5.571-7.2-7.205-11.34
		c-3.709-9.395-9.782-13.984-20.228-12.303c-3.995,0.642-8.179,0.136-12.275,0.096c-3.272-0.032-3.385,1.431-1.961,3.79
		c1.223,2.026,2.83,3.483,5.266,3.831c1.017,0.145,2.081,0.382,3.057,0.175c11.995-2.547,18.055,3.996,22.378,13.983
		c2.563,5.922,2.596,7.061-3.629,9.664c-9.948,4.161-18.759,9.878-26.501,17.453c-8.04,7.867-13.041,17.21-15.475,28.089
		c-0.424,1.894-0.303,4.527-2.753,5.002c-1.964,0.381-3.235-1.495-4.376-2.94C409.063,428.133,400.552,424.729,394.294,418.565z"/>
	<path style="fill:#A4CD47;" d="M502.036,378.499c-0.11-27.032-0.221-54.063-0.325-81.092c25.395-14.579,50.855-29.04,76.105-43.86
		c4.415-2.591,7.563-2.898,12.116-0.201c23.256,13.775,46.703,27.234,70.214,40.572c4.18,2.372,6.009,4.903,5.953,9.983
		c-0.299,27.046-0.154,54.097-0.12,81.146c0.003,2.42-0.546,4.939,0.809,7.223c-5.1,2.336-10.622,1.513-15.933,1.897
		c-24.175,1.748-46.277,8.9-65.496,24.038c-1.725,1.358-3.169,3.276-5.749,3.01c-0.516-0.333-1.069-0.672-1.37-1.205
		c-8.961-15.864-22.467-26.282-39.229-32.829c-4.467-1.745-5.332-4.703-2.772-8.719c0.22-0.345,0.39-0.721,0.603-1.07
		c8.711-14.321,5.186-13.563,22.039-13.415c4.972,0.044,8.208-1.855,10.026-7.861c-9.234,0.167-18.061-0.423-26.898,0.47
		c-2.689,0.272-3.968,2.649-5.214,4.818c-2.856,4.972-5.6,10.009-8.586,14.906c-1.066,1.749-2.03,4.142-4.028,4.44
		C516.66,381.874,509.127,382.065,502.036,378.499z"/>
	<path style="fill:#FEFEFE;" d="M502.036,378.499c6.099,0.594,12.214,1.069,18.291,1.839c2.631,0.333,4.126-0.421,5.398-2.766
		c3.414-6.296,7.228-12.377,10.572-18.707c1.731-3.276,3.821-4.719,7.672-4.601c9.122,0.281,18.259,0.09,27.614,0.09
		c-4.096,11.208-4.096,11.208-14.797,11.208c-1.844,0-3.713,0.197-5.526-0.04c-4.191-0.547-6.855,0.906-8.641,4.909
		c-1.989,4.458-6.899,8.983-6.3,12.818c0.536,3.431,7.794,3.954,11.917,6.137c13.744,7.278,24.967,17.07,31.827,31.32
		c4.378,3.507,3.578,9.027,5.201,13.551c2.439,0.824,2.847-3.544,5.481-2.016c-0.105,4.477,0.743,9.575-6.24,9.567
		c-37.452-1.131-74.913-0.227-112.369-0.487c-13.715-0.095-27.432-0.045-41.147-0.004c-8.95,0.027-9.163,0.28-9.271,9.367
		c-0.017,1.433-0.006,2.866-0.156,4.292c0.16,5.391,0.15,10.782,0.048,16.173c-0.051,5.639,0.166,11.281-0.081,16.916
		c0.08,4.562,0.179,9.128-0.222,13.677c-1.817,6.537-7.263,10.162-11.974,14.186c-6.852,5.852-14.815,10.043-23.327,13.007
		c-3.956,1.377-4.621,3.202-2.354,6.714c1.575,2.439,4.051,4.765,2.817,8.241c-4.323,0.519-7.262-0.736-7.311-5.699
		c-0.013-1.303-0.665-2.162-1.572-3.125c-4.719-5.014-4.166-9.107,2.464-10.346c9.227-1.724,15.939-7.279,23.427-11.933
		c7.618-4.735,11.88-10.484,11.52-20.048c-0.593-15.74-0.226-31.519-0.107-47.28c0.025-3.275-0.703-5.591-3.422-7.857
		c-4.909-4.092-6.785-11.454-14.652-12.565c-2.469-0.349-1.433-4.345-2.523-6.474c9.865,4.002,17.618,10.783,24.825,19.153
		c4.67-29.113,24.188-44.227,49.59-53.907c-0.849-1.619-1.688-2.807-2.132-4.127c-3.928-11.684-11.692-16.453-24.042-14.243
		c-7.711,1.38-6.684-6.713-9.959-11.073c10.072,0,20.144,0.036,30.215-0.027c2.357-0.015,3.036,1.668,3.94,3.252
		c3.748,6.563,7.564,13.087,11.225,19.698c1.334,2.409,2.813,3.533,5.823,3.093C489.825,379.5,495.945,379.099,502.036,378.499z"/>
	<path style="fill:#F68C35;" d="M386.467,543.891c-2.31-4.475-7.165-9.6-6.232-13.245c0.984-3.844,8.49-4.039,12.961-6.292
		c10.287-5.182,19.444-11.741,26.829-20.649c2.444-1.405,5.143-1.151,7.786-1.152c49.684-0.016,99.368-0.011,149.052,0.002
		c2.429,0.001,4.935-0.314,7.174,1.06c9.625,12.089,22.297,19.708,36.674,24.686c3.42,1.184,4.541,2.019,2.34,5.758
		c-6.377,10.832-6.212,11.028-17.707,5.803c-8.045-3.657-15.724-8.07-22.248-14.047c-2.895-2.652-4.88-2.334-7.903-0.57
		c-22.808,13.307-45.754,26.378-68.52,39.754c-3.477,2.043-5.893,2.027-9.381-0.023c-22.764-13.382-45.733-26.414-68.519-39.759
		c-3.159-1.85-5.082-1.707-7.932,0.617C410.64,534.156,399.613,541.09,386.467,543.891z"/>
	<path style="fill:#F68C35;" d="M473.677,638.204c-5.589,13.377-11.151,26.766-16.785,40.124c-1.433,3.397-1.935,7.115-7.526,7.123
		c-5.873,0.009-5.853-4.273-7.181-7.49c-5.45-13.203-10.627-26.518-17.065-39.813c-1.382,9.254-2.763,18.508-4.147,27.762
		c-0.756,5.054-1.722,10.088-2.197,15.169c-0.285,3.051-1.288,4.344-4.491,4.193c-4.7-0.221-9.427-0.237-14.125,0.002
		c-3.527,0.18-4.18-1.25-3.634-4.393c4.481-25.783,8.931-51.571,13.224-77.386c0.51-3.067,1.662-4.42,4.72-4.077
		c0.404,0.045,0.819,0.01,1.228,0.003c16.658-0.286,16.647-0.282,22.549,15.277c3.688,9.724,7.413,19.434,11.528,30.215
		c5.778-14.274,11.307-27.415,16.357-40.738c1.424-3.757,3.272-5.151,7.134-4.801c5.468,0.496,12.153-2.065,16.132,1.045
		c3.787,2.96,2.455,9.876,3.257,15.066c3.374,21.827,6.575,43.682,10.067,65.49c0.544,3.396-0.21,4.156-3.516,4.314
		c-18.523,0.887-18.487,0.964-20.497-17.454c-0.554-5.081-1.397-10.13-2.054-15.2c-0.622-4.796-1.174-9.602-1.757-14.403
		C474.49,638.223,474.083,638.214,473.677,638.204z"/>
	<path style="fill:#58585A;" d="M420.01,471.766c0.004-5.408,0.008-10.816,0.012-16.224c2.223-2.395,5.198-2.163,8.031-2.166
		c49.128-0.047,98.257-0.065,147.385,0.021c2.989,0.005,6.253-0.435,8.482,2.439c0.429,5.302,0.556,10.604-0.061,15.902
		c-2.559,3.813-6.574,2.722-10.073,2.733c-31.901,0.104-63.802,0.06-95.703,0.059c-16.155,0-32.31,0.052-48.465-0.04
		C426.219,474.471,422.535,475.047,420.01,471.766z"/>
	<path style="fill:#59585A;" d="M584.037,503.616c-2.026,0.198-4.052,0.567-6.078,0.568c-50.611,0.031-101.222,0.03-151.832,0.002
		c-2.034-0.001-4.068-0.317-6.102-0.484c0.003-5.204,0.006-10.411,0.008-15.619c1.944-2.735,4.916-2.699,7.757-2.704
		c49.457-0.093,98.913-0.087,148.37,0.009c2.773,0.005,5.851-0.351,7.722,2.591C583.934,493.191,583.985,498.404,584.037,503.616z"
		/>
	<path style="fill:#F68D35;" d="M583.92,455.836c-1.629-0.115-3.257-0.332-4.886-0.332c-53.004-0.001-106.008,0.02-159.012,0.037
		c-1.052-16.045-1.052-16.045,14.733-16.045c47.926,0,95.851-0.02,143.776,0.07c2.08,0.004,5.173-1.606,5.973,2.242
		C584.309,446.485,584.114,451.16,583.92,455.836z"/>
	<path style="fill:#F58D35;" d="M567.386,652.069c0-9.63-0.124-19.262,0.066-28.888c0.067-3.413-0.924-5.039-4.471-4.533
		c-0.201,0.029-0.409,0.006-0.614,0.001c-14.973-0.368-14.888-0.36-13.527-15.793c0.241-2.733,1.234-3.464,3.74-3.456
		c17.213,0.056,34.426,0.028,51.639,0.028c0.41,0,0.933-0.146,1.212,0.049c5.844,4.081,1.305,10.003,2.562,14.937
		c0.613,2.404-0.127,4.56-3.429,4.236c-0.609-0.06-1.229-0.012-1.843-0.001c-13.113,0.226-13.113,0.227-13.113,13.076
		c0,15.981-0.121,31.964,0.083,47.943c0.052,4.081-0.787,6.048-5.332,5.629c-4.064-0.375-8.209-0.328-12.282-0.007
		c-3.944,0.311-4.848-1.3-4.764-4.947C567.531,670.922,567.386,661.493,567.386,652.069z"/>
	<path style="fill:#F68D35;" d="M583.882,487.979c-2.034-0.145-4.067-0.414-6.101-0.415c-50.349-0.023-100.698-0.025-151.047,0.006
		c-2.234,0.001-4.467,0.34-6.701,0.518c-0.008-5.445-0.016-10.886-0.023-16.324c2.035,0.155,4.07,0.439,6.105,0.44
		c50.757,0.025,101.514,0.026,152.271,0.001c1.825-0.001,3.65-0.308,5.474-0.469C584.488,477.151,584.455,482.565,583.882,487.979z"
		/>
	<path style="fill:#F68C35;" d="M590.744,432.242c-1.881,2.036-3.761,4.073-6.432,6.964c-1.013-7.094-2.066-12.946-4.25-18.498
		c24.784-22.065,54.406-29.372,86.729-28.436c7.784,0.099,15.486,0.971,23.083,2.69c3.902,0.883,5.556,6.416,4.032,12.637
		c-1.142,4.664-4.317,2.555-6.803,2.074c-27.734-5.366-54.487-3.04-79.814,10.183C601.137,423.068,595.261,426.783,590.744,432.242z
		"/>
	<path style="fill:#59595B;" d="M479.221,731.497c0-5.031,0.115-10.065-0.044-15.09c-0.094-2.984,0.604-4.486,4.038-4.451
		c3.487,0.035,3.359,2.046,3.352,4.416c-0.029,9.015,0.05,18.03-0.059,27.044c-0.022,1.795,1.147,4.422-2.003,4.96
		c-2.543,0.434-4.675,0.052-6.267-2.568c-3.584-5.898-7.486-11.603-12.524-17.145c0,5.204-0.066,10.41,0.028,15.613
		c0.047,2.565-0.266,4.278-3.554,4.283c-3.342,0.005-3.519-1.799-3.501-4.318c0.067-9.219-0.018-18.44,0.071-27.658
		c0.016-1.628-0.94-4.025,1.859-4.432c2.221-0.323,4.391-0.389,5.906,2.049c3.666,5.902,7.532,11.679,11.317,17.507
		C478.3,731.636,478.761,731.566,479.221,731.497z"/>
	<path style="fill:#59595B;" d="M560.467,728.951c0,5.246-0.051,10.493,0.023,15.738c0.034,2.392-0.524,3.803-3.359,3.853
		c-2.965,0.052-3.908-1.115-3.873-3.967c0.112-9.003-0.048-18.009,0.114-27.011c0.034-1.908-1.459-4.772,2.095-5.466
		c3.016-0.589,4.926,0.695,6.506,3.28c3.381,5.534,7.016,10.911,11.843,16.196c0-5.143,0.082-10.289-0.034-15.43
		c-0.06-2.664,0.484-4.161,3.663-4.181c3.096-0.019,3.755,1.27,3.721,4.026c-0.115,9.207,0.014,18.418-0.091,27.625
		c-0.02,1.778,1.102,4.409-2.148,4.795c-2.294,0.273-4.337,0.134-5.818-2.27c-3.631-5.891-7.498-11.636-11.271-17.44
		C561.381,728.784,560.924,728.868,560.467,728.951z"/>
	<path style="fill:#5A5A5B;" d="M668.162,736.67c-1.23-2.202-1.624-3.691,0.898-5.56c3.838-2.83,4.724-6.988,3.174-11.527
		c-1.649-4.835-5.253-7.172-10.174-7.431c-3.875-0.209-7.775,0.074-11.638-0.16c-3.408-0.209-4.084,1.415-4.047,4.392
		c0.135,9.202,0.111,18.392,0.012,27.582c-0.025,2.842,0.394,4.601,3.912,4.613c3.974,0,3.076-2.596,3.531-4.921
		c0.603-3.137-2.436-7.959,1.87-9.141c5.376-1.476,4.699,4.909,7,7.554c0.135,0.16,0.246,0.344,0.295,0.541
		c1.538,5.241,4.847,7.197,10.924,5.179C671.902,743.867,670.143,740.214,668.162,736.67z M657.287,728.342
		c-2.3,0.455-3.875-0.812-3.715-4.773c0.135-3.272,0.234-5.573,4.54-5.204c3.432,0.295,7.098,0.258,7.332,4.613
		C665.702,727.395,662.122,727.997,657.287,728.342z"/>
	<path style="fill:#5A595B;" d="M640.433,722.892c-1.267-7.381-6.975-11.736-14.381-11.097c-8.821,0.763-12.216,5.844-12.204,18.306
		c0.012,1.845-0.061,3.678,0.012,5.524c0.308,7.726,5.068,12.819,12.376,13.336c7.48,0.529,13.372-4.281,14.344-12.019
		C641.159,732.279,641.233,727.555,640.433,722.892z M633.015,737.347c-0.578,3.211-2.633,5.007-6.028,4.835
		c-3.309-0.172-5.314-1.919-5.659-5.265c-0.246-2.436-0.283-4.884-0.406-7.271c0.726-4.576-1.267-10.69,6.213-11.269
		c4.638-0.369,6.459,3.112,6.409,11.675C633.532,732.488,633.446,734.961,633.015,737.347z"/>
	<path style="fill:#5A595B;" d="M523.189,729.803c-0.001-4.504,0.157-9.015-0.055-13.509c-0.146-3.115,0.77-4.44,4.095-4.308
		c5.52,0.219,11.055,0.113,16.582,0.039c2.353-0.032,3.817,0.35,3.814,3.29c-0.003,3.02-1.619,3.256-3.897,3.193
		c-2.66-0.074-5.329,0.095-7.983-0.045c-3.18-0.167-5.32-0.014-5.332,4.357c-0.012,4.604,2.543,4.248,5.498,4.161
		c1.841-0.054,3.691,0.085,5.527-0.028c2.496-0.154,3.745,0.567,3.666,3.408c-0.071,2.552-1.244,3.128-3.423,3.043
		c-2.044-0.08-4.111,0.151-6.138-0.049c-3.495-0.345-5.138,0.497-5.112,4.586c0.025,4.036,2.008,4.19,4.962,4.07
		c3.066-0.125,6.144,0.069,9.211-0.041c2.613-0.094,2.964,1.371,2.978,3.493c0.014,2.039-0.693,3.036-2.815,3.024
		c-6.142-0.035-12.286-0.075-18.426,0.031c-2.984,0.052-3.209-1.685-3.174-3.975C523.241,739.63,523.19,734.716,523.189,729.803z"/>
	<path style="fill:#59585A;" d="M386.086,713.948c-6.25-3.432-13.532-2.952-19.634-1.169c-3.715,1.083-0.947,7.664-1.501,11.736
		c-0.246,1.796-0.049,3.666-0.037,5.499c0,5.093,0.049,10.199-0.025,15.292c-0.037,2.916,1.71,3.211,3.998,3.199
		c2.239,0,3.457-0.726,3.334-3.174c-0.111-2.03,0.148-4.097-0.061-6.114c-0.369-3.58,1.243-4.712,4.613-4.478
		c2.017,0.135,4.134,0.086,6.077-0.394c4.859-1.206,7.713-4.527,8.341-9.436C391.782,720.296,390.244,716.224,386.086,713.948z
		 M376.576,728.453c-4.207,0.344-4.859-1.796-4.343-5.167c-0.75-3.715,0.701-5.155,4.564-4.896c3.494,0.234,6.963,0.492,7.074,4.847
		C383.995,728.071,380.255,728.157,376.576,728.453z"/>
	<path style="fill:#59595B;" d="M350.028,715.732c-0.726-2.005-1.329-3.642-4.023-3.764c-3.039-0.148-3.74,1.722-4.527,3.912
		c-3.371,9.387-6.84,18.749-10.162,28.16c-0.418,1.218-1.993,2.829-0.627,3.801c1.132,0.8,3.088,0.578,4.675,0.578
		c2.436-0.012,2.473-2.214,3.297-3.789c1.784-3.457,12.991-3.998,14.098-0.455c1.599,5.118,4.638,4.736,8.993,3.703
		C357.791,737.039,353.879,726.398,350.028,715.732z M348.638,735.637c-1.476,0.726-3.863,0.713-5.364,0.012
		c-2.51-1.169-0.381-3.137,0.049-4.675c0.566-2.055,1.439-4.035,2.633-7.271c1.169,3.199,2.042,5.155,2.583,7.209
		C348.958,732.463,351.049,734.456,348.638,735.637z"/>
	<path style="fill:#5A595B;" d="M415.095,712.78c-5.757-1.55-12.462-2.288-17.457,0.074c-3.26,1.538-0.713,8.292-1.144,12.683
		c-0.148,1.415-0.025,2.866-0.025,4.293c0,5.118,0.086,10.235-0.037,15.353c-0.049,2.3,0.714,3.125,3.112,3.371
		c4.441,0.48,4.724-2.141,4.269-5.228c-0.91-6.151,0.492-9.977,7.8-8.599c0.775,0.147,1.648-0.049,2.436-0.246
		c5.413-1.39,8.378-4.847,8.624-10.482C422.906,718.414,420.471,714.219,415.095,712.78z M408.205,728.44
		c-4.011,0.197-5.142-1.476-4.232-4.847c-0.763-3.826,0.381-5.462,4.367-5.204c3.531,0.234,6.988,0.652,7.111,4.81
		C415.599,727.801,411.994,728.256,408.205,728.44z"/>
	<path style="fill:#5A595B;" d="M519.57,712.746c-3.676,11.067-7.389,22.048-10.935,33.083c-0.724,2.254-2.075,2.662-4.108,2.671
		c-2.486,0.011-2.935-1.782-3.514-3.533c-3.076-9.294-6.21-18.571-9.15-27.908c-0.482-1.531-2.876-3.983,0.432-4.836
		c2.627-0.677,5.602-0.93,6.559,3.267c1.175,5.155,3.026,10.156,4.59,15.222c0.357,1.155,0.62,2.373,1.955,3.105
		c1.729-5.468,3.458-10.899,5.164-16.337C512.416,711.579,512.407,711.576,519.57,712.746z"/>
	<path style="fill:#5B5B5D;" d="M595.363,733.321c-0.001-2.243-0.115-4.494,0.023-6.729c0.308-4.991,0.488-9.69-6.934-8.146
		c-2.14,0.445-2.77-0.926-2.766-2.907c0.004-2.042,0.152-3.564,2.853-3.521c6.729,0.106,13.462,0.088,20.192-0.003
		c2.384-0.032,3.197,0.924,3.188,3.251c-0.009,2.296-0.776,3.661-3.16,3.194c-6.122-1.201-6.519,2.28-6.312,6.976
		c0.278,6.31,0.002,12.643,0.103,18.964c0.043,2.678-0.583,4.143-3.707,4.174c-3.29,0.033-3.571-1.716-3.504-4.24
		C595.436,740.665,595.364,736.992,595.363,733.321z"/>
	<path style="fill:#5E5D5F;" d="M444.284,729.757c-0.002-4.694,0.085-9.391-0.037-14.082c-0.064-2.458,0.494-3.751,3.34-3.713
		c2.751,0.037,4.067,0.699,4.02,3.777c-0.147,9.795-0.12,19.594-0.016,29.39c0.03,2.828-1.34,3.375-3.772,3.428
		c-2.584,0.057-3.656-0.801-3.577-3.493C444.39,739.965,444.285,734.86,444.284,729.757z"/>
	<path style="fill:#5A595B;" d="M522.155,407.419c4.552-0.111,8.26,3.463,8.304,8.004c0.043,4.498-3.649,8.257-8.193,8.073
		c-4.8-0.194-7.559-2.792-7.853-7.644C514.129,411.186,517.571,407.531,522.155,407.419z"/>
	<path style="fill:#59595B;" d="M489.682,416.034c-0.31,4.465-4.303,7.853-8.814,7.479c-4.629-0.384-7.823-4.173-7.251-8.866
		c0.589-4.832,3.59-7.221,8.338-7.185C486.443,407.495,489.99,411.589,489.682,416.034z"/>
</g>
</svg>
