<?xml version="1.0" standalone="no"?>
<!DOCTYPE svg PUBLIC "-//W3C//DTD SVG 20010904//EN" "http://www.w3.org/TR/2001/REC-SVG-20010904/DTD/svg10.dtd">
<!-- Created using Krita: https://krita.org -->
<svg xmlns="http://www.w3.org/2000/svg" xmlns:xlink="http://www.w3.org/1999/xlink"
	xmlns:krita="http://krita.org/namespaces/svg/krita"
	xmlns:sodipodi="http://sodipodi.sourceforge.net/DTD/sodipodi-0.dtd" width="24pt" height="24pt" viewBox="0 0 24 24">
	<defs />
	<path id="shape0"
		transform="matrix(0.603658079843255 -0.392424416467625 0.392424416467625 0.603658079843255 15.5308713515487 10.2180988176783)"
		fill="#3a4656" stroke-opacity="0" stroke="#000000" stroke-width="0" stroke-linecap="square"
		stroke-linejoin="bevel"
		d="M13.0172 16.9358C12.5968 16.9358 12.0574 16.8009 11.3831 16.4043L9.01133 15.0002C8.76543 14.8575 8.28948 14.8575 8.05151 15.0002L5.67179 16.4043C4.26775 17.2372 3.44277 16.904 3.06995 16.6343C2.70506 16.3646 2.13392 15.6745 2.50675 14.088L3.06995 11.6528C3.13341 11.3989 3.00649 10.9626 2.81611 10.7723L0.848866 8.80501C-0.134758 7.82141 -0.0554338 6.98057 0.0794179 6.56806C0.214269 6.15557 0.642621 5.42579 2.007 5.19575L4.53745 4.77533C4.77542 4.73567 5.11652 4.48183 5.21964 4.26765L6.62368 1.4675C7.25826 0.190379 8.09117 0 8.52745 0C8.96374 0 9.79664 0.190379 10.4312 1.4675L11.8273 4.25972C11.9384 4.4739 12.2795 4.72773 12.5175 4.7674L15.0479 5.18782C16.4202 5.41786 16.8486 6.14764 16.9755 6.56013C17.1024 6.97264 17.1817 7.81348 16.2061 8.79708L14.2388 10.7723C14.0484 10.9626 13.9294 11.391 13.985 11.6528L14.5482 14.088C14.9131 15.6745 14.3499 16.3646 13.985 16.6343C13.7867 16.7771 13.4694 16.9358 13.0172 16.9358ZM8.52745 13.6993C8.91614 13.6993 9.30483 13.7945 9.6142 13.977L11.986 15.381C12.6761 15.7935 13.1124 15.7935 13.279 15.6745C13.4456 15.5555 13.5646 15.1351 13.39 14.3577L12.8268 11.9225C12.6761 11.2641 12.922 10.4153 13.398 9.93142L15.3652 7.96417C15.7539 7.5755 15.9284 7.19475 15.8491 6.93298C15.7618 6.67118 15.3969 6.45701 14.8575 6.36975L12.3271 5.94933C11.7163 5.84621 11.05 5.3544 10.7723 4.79913L9.37622 2.00691C9.12239 1.49923 8.80509 1.1978 8.52745 1.1978C8.24982 1.1978 7.93252 1.49923 7.68661 2.00691L6.28259 4.79913C6.00495 5.3544 5.33863 5.84621 4.72783 5.94933L2.20531 6.36975C1.66591 6.45701 1.30102 6.67118 1.21376 6.93298C1.1265 7.19475 1.30895 7.58344 1.69764 7.96417L3.66488 9.93142C4.14083 10.4074 4.38673 11.2641 4.23602 11.9225L3.67281 14.3577C3.49037 15.143 3.61729 15.5555 3.78387 15.6745C3.95045 15.7935 4.3788 15.7856 5.07686 15.381L7.44864 13.977C7.75007 13.7945 8.13876 13.6993 8.52745 13.6993Z"
		sodipodi:nodetypes="cccccccccccccccccccccccccccccccccccccccccccccccccccccc" />
	<path id="shape01"
		transform="matrix(0.603658079843255 -0.392424416467625 0.392424416467625 0.603658079843255 -8.46913130720613 10.2259359202798)"
		fill="#3a4656" stroke-opacity="0" stroke="#000000" stroke-width="0" stroke-linecap="square"
		stroke-linejoin="bevel"
		d="M13.0172 16.9358C12.5968 16.9358 12.0574 16.8009 11.3831 16.4043L9.01133 15.0002C8.76543 14.8575 8.28948 14.8575 8.05151 15.0002L5.67179 16.4043C4.26775 17.2372 3.44277 16.904 3.06995 16.6343C2.70506 16.3646 2.13392 15.6745 2.50675 14.088L3.06995 11.6528C3.13341 11.3989 3.00649 10.9626 2.81611 10.7723L0.848866 8.80501C-0.134758 7.82141 -0.0554338 6.98057 0.0794179 6.56806C0.214269 6.15557 0.642621 5.42579 2.007 5.19575L4.53745 4.77533C4.77542 4.73567 5.11652 4.48183 5.21964 4.26765L6.62368 1.4675C7.25826 0.190379 8.09117 0 8.52745 0C8.96374 0 9.79664 0.190379 10.4312 1.4675L11.8273 4.25972C11.9384 4.4739 12.2795 4.72773 12.5175 4.7674L15.0479 5.18782C16.4202 5.41786 16.8486 6.14764 16.9755 6.56013C17.1024 6.97264 17.1817 7.81348 16.2061 8.79708L14.2388 10.7723C14.0484 10.9626 13.9294 11.391 13.985 11.6528L14.5482 14.088C14.9131 15.6745 14.3499 16.3646 13.985 16.6343C13.7867 16.7771 13.4694 16.9358 13.0172 16.9358ZM8.52745 13.6993C8.91614 13.6993 9.30483 13.7945 9.6142 13.977L11.986 15.381C12.6761 15.7935 13.1124 15.7935 13.279 15.6745C13.4456 15.5555 13.5646 15.1351 13.39 14.3577L12.8268 11.9225C12.6761 11.2641 12.922 10.4153 13.398 9.93142L15.3652 7.96417C15.7539 7.5755 15.9284 7.19475 15.8491 6.93298C15.7618 6.67118 15.3969 6.45701 14.8575 6.36975L12.3271 5.94933C11.7163 5.84621 11.05 5.3544 10.7723 4.79913L9.37622 2.00691C9.12239 1.49923 8.80509 1.1978 8.52745 1.1978C8.24982 1.1978 7.93252 1.49923 7.68661 2.00691L6.28259 4.79913C6.00495 5.3544 5.33863 5.84621 4.72783 5.94933L2.20531 6.36975C1.66591 6.45701 1.30102 6.67118 1.21376 6.93298C1.1265 7.19475 1.30895 7.58344 1.69764 7.96417L3.66488 9.93142C4.14083 10.4074 4.38673 11.2641 4.23602 11.9225L3.67281 14.3577C3.49037 15.143 3.61729 15.5555 3.78387 15.6745C3.95045 15.7935 4.3788 15.7856 5.07686 15.381L7.44864 13.977C7.75007 13.7945 8.13876 13.6993 8.52745 13.6993Z"
		sodipodi:nodetypes="cccccccccccccccccccccccccccccccccccccccccccccccccccccc" />
	<path id="shape02"
		transform="matrix(0.603658079843255 -0.392424416467625 0.392424416467625 0.603658079843255 3.54211869240062 -1.76634005968879)"
		fill="#3a4656" stroke-opacity="0" stroke="#000000" stroke-width="0" stroke-linecap="square"
		stroke-linejoin="bevel"
		d="M13.0172 16.9358C12.5968 16.9358 12.0574 16.8009 11.3831 16.4043L9.01133 15.0002C8.76543 14.8575 8.28948 14.8575 8.05151 15.0002L5.67179 16.4043C4.26775 17.2372 3.44277 16.904 3.06995 16.6343C2.70506 16.3646 2.13392 15.6745 2.50675 14.088L3.06995 11.6528C3.13341 11.3989 3.00649 10.9626 2.81611 10.7723L0.848866 8.80501C-0.134758 7.82141 -0.0554338 6.98057 0.0794179 6.56806C0.214269 6.15557 0.642621 5.42579 2.007 5.19575L4.53745 4.77533C4.77542 4.73567 5.11652 4.48183 5.21964 4.26765L6.62368 1.4675C7.25826 0.190379 8.09117 0 8.52745 0C8.96374 0 9.79664 0.190379 10.4312 1.4675L11.8273 4.25972C11.9384 4.4739 12.2795 4.72773 12.5175 4.7674L15.0479 5.18782C16.4202 5.41786 16.8486 6.14764 16.9755 6.56013C17.1024 6.97264 17.1817 7.81348 16.2061 8.79708L14.2388 10.7723C14.0484 10.9626 13.9294 11.391 13.985 11.6528L14.5482 14.088C14.9131 15.6745 14.3499 16.3646 13.985 16.6343C13.7867 16.7771 13.4694 16.9358 13.0172 16.9358ZM8.52745 13.6993C8.91614 13.6993 9.30483 13.7945 9.6142 13.977L11.986 15.381C12.6761 15.7935 13.1124 15.7935 13.279 15.6745C13.4456 15.5555 13.5646 15.1351 13.39 14.3577L12.8268 11.9225C12.6761 11.2641 12.922 10.4153 13.398 9.93142L15.3652 7.96417C15.7539 7.5755 15.9284 7.19475 15.8491 6.93298C15.7618 6.67118 15.3969 6.45701 14.8575 6.36975L12.3271 5.94933C11.7163 5.84621 11.05 5.3544 10.7723 4.79913L9.37622 2.00691C9.12239 1.49923 8.80509 1.1978 8.52745 1.1978C8.24982 1.1978 7.93252 1.49923 7.68661 2.00691L6.28259 4.79913C6.00495 5.3544 5.33863 5.84621 4.72783 5.94933L2.20531 6.36975C1.66591 6.45701 1.30102 6.67118 1.21376 6.93298C1.1265 7.19475 1.30895 7.58344 1.69764 7.96417L3.66488 9.93142C4.14083 10.4074 4.38673 11.2641 4.23602 11.9225L3.67281 14.3577C3.49037 15.143 3.61729 15.5555 3.78387 15.6745C3.95045 15.7935 4.3788 15.7856 5.07686 15.381L7.44864 13.977C7.75007 13.7945 8.13876 13.6993 8.52745 13.6993Z"
		sodipodi:nodetypes="cccccccccccccccccccccccccccccccccccccccccccccccccccccc" />
	<path id="shape03"
		transform="matrix(0.603658079843255 -0.392424416467625 0.392424416467625 0.603658079843255 3.53086869279387 22.1964955935607)"
		fill="#3a4656" stroke-opacity="0" stroke="#000000" stroke-width="0" stroke-linecap="square"
		stroke-linejoin="bevel"
		d="M13.0172 16.9358C12.5968 16.9358 12.0574 16.8009 11.3831 16.4043L9.01133 15.0002C8.76543 14.8575 8.28948 14.8575 8.05151 15.0002L5.67179 16.4043C4.26775 17.2372 3.44277 16.904 3.06995 16.6343C2.70506 16.3646 2.13392 15.6745 2.50675 14.088L3.06995 11.6528C3.13341 11.3989 3.00649 10.9626 2.81611 10.7723L0.848866 8.80501C-0.134758 7.82141 -0.0554338 6.98057 0.0794179 6.56806C0.214269 6.15557 0.642621 5.42579 2.007 5.19575L4.53745 4.77533C4.77542 4.73567 5.11652 4.48183 5.21964 4.26765L6.62368 1.4675C7.25826 0.190379 8.09117 0 8.52745 0C8.96374 0 9.79664 0.190379 10.4312 1.4675L11.8273 4.25972C11.9384 4.4739 12.2795 4.72773 12.5175 4.7674L15.0479 5.18782C16.4202 5.41786 16.8486 6.14764 16.9755 6.56013C17.1024 6.97264 17.1817 7.81348 16.2061 8.79708L14.2388 10.7723C14.0484 10.9626 13.9294 11.391 13.985 11.6528L14.5482 14.088C14.9131 15.6745 14.3499 16.3646 13.985 16.6343C13.7867 16.7771 13.4694 16.9358 13.0172 16.9358ZM8.52745 13.6993C8.91614 13.6993 9.30483 13.7945 9.6142 13.977L11.986 15.381C12.6761 15.7935 13.1124 15.7935 13.279 15.6745C13.4456 15.5555 13.5646 15.1351 13.39 14.3577L12.8268 11.9225C12.6761 11.2641 12.922 10.4153 13.398 9.93142L15.3652 7.96417C15.7539 7.5755 15.9284 7.19475 15.8491 6.93298C15.7618 6.67118 15.3969 6.45701 14.8575 6.36975L12.3271 5.94933C11.7163 5.84621 11.05 5.3544 10.7723 4.79913L9.37622 2.00691C9.12239 1.49923 8.80509 1.1978 8.52745 1.1978C8.24982 1.1978 7.93252 1.49923 7.68661 2.00691L6.28259 4.79913C6.00495 5.3544 5.33863 5.84621 4.72783 5.94933L2.20531 6.36975C1.66591 6.45701 1.30102 6.67118 1.21376 6.93298C1.1265 7.19475 1.30895 7.58344 1.69764 7.96417L3.66488 9.93142C4.14083 10.4074 4.38673 11.2641 4.23602 11.9225L3.67281 14.3577C3.49037 15.143 3.61729 15.5555 3.78387 15.6745C3.95045 15.7935 4.3788 15.7856 5.07686 15.381L7.44864 13.977C7.75007 13.7945 8.13876 13.6993 8.52745 13.6993Z"
		sodipodi:nodetypes="cccccccccccccccccccccccccccccccccccccccccccccccccccccc" />
</svg>